<?xml version="1.0" encoding="UTF-8" standalone="no"?>
<!-- Created with Inkscape (http://www.inkscape.org/) -->

<svg
   width="100%"
   height="100%"
   viewBox="0 0 99.999997 99.999997"
   id="svg8780"
   version="1.1"
   inkscape:version="1.3 (0e150ed6c4, 2023-07-21)"
   sodipodi:docname="Amphibia.svg"
   xmlns:inkscape="http://www.inkscape.org/namespaces/inkscape"
   xmlns:sodipodi="http://sodipodi.sourceforge.net/DTD/sodipodi-0.dtd"
   xmlns="http://www.w3.org/2000/svg"
   xmlns:svg="http://www.w3.org/2000/svg"
   xmlns:rdf="http://www.w3.org/1999/02/22-rdf-syntax-ns#"
   xmlns:cc="http://creativecommons.org/ns#"
   xmlns:dc="http://purl.org/dc/elements/1.1/">
  <defs
     id="defs8782" />
  <sodipodi:namedview
     id="base"
     pagecolor="#ffffff"
     bordercolor="#666666"
     borderopacity="1.0"
     inkscape:pageopacity="0.0"
     inkscape:pageshadow="2"
     inkscape:zoom="2.8"
     inkscape:cx="-41.964286"
     inkscape:cy="46.25"
     inkscape:document-units="px"
     inkscape:current-layer="layer1"
     showgrid="false"
     fit-margin-top="0"
     fit-margin-left="0"
     fit-margin-right="0"
     fit-margin-bottom="0"
     inkscape:window-width="2560"
     inkscape:window-height="1371"
     inkscape:window-x="0"
     inkscape:window-y="32"
     inkscape:window-maximized="1"
     inkscape:showpageshadow="2"
     inkscape:pagecheckerboard="true"
     inkscape:deskcolor="#d1d1d1" />
  <metadata
     id="metadata8785">
    <rdf:RDF>
      <cc:Work
         rdf:about="">
        <dc:format>image/svg+xml</dc:format>
        <dc:type
           rdf:resource="http://purl.org/dc/dcmitype/StillImage" />
      </cc:Work>
    </rdf:RDF>
  </metadata>
  <g
     inkscape:label="Layer 1"
     inkscape:groupmode="layer"
     id="layer1"
     transform="translate(-327.14285,-456.64792)">
    <path
       id="rect1"
       style="fill:#b7c0c8;stroke-width:2.039;stroke-linecap:round;stroke-linejoin:round;fill-opacity:1"
       d="m 327.14285,456.64792 h 100 v 100 h -100 z" />
    <g
       transform="matrix(0.52156765,0,0,0.52156765,421.92734,-779.12243)"
       style="display:inline;fill:#f5f5f5;fill-opacity:1"
       id="g5890"
       inkscape:export-filename="/media/BigData/anymals_workspace/inkscape/TAXONFILTER/amphibiae_h111.png"
       inkscape:export-xdpi="75.143196"
       inkscape:export-ydpi="75.143196">
      <path
         inkscape:export-ydpi="60.208954"
         inkscape:export-xdpi="60.208954"
         inkscape:export-filename="/home/tom/anymals_workspace/inkscape/TAXONFILTER/frogs_h50.png"
         sodipodi:nodetypes="cscsssssczccczccczcsccscssscscccccczccczcsccccccssssssssscsscc"
         inkscape:connector-curvature="0"
         id="path3862-8-9-8-1-5"
         d="m -133.47127,2412.1836 c -5.50315,3.2255 -21.73069,8.9705 -27.21289,16.2382 -4.12499,5.4684 -4.89909,15.8571 -2.68738,18.5754 -1.33706,1.3244 -4.83656,3.1863 -4.84805,5.1707 -0.0143,2.4654 0.99881,3.688 1.48806,4.8052 1.28166,2.9266 3.63886,3.2355 11.41038,5.5295 4.87924,1.4404 10.53685,4.0242 15.65801,4.6673 0.5142,0.065 10.5858,-3.2458 17.68918,-0.8049 4.2933,1.4752 7.33607,6.6152 8.98184,8.0457 -1.22489,0.77 0.93465,4.3074 3.72512,2.9372 2.79047,-1.3703 0.67272,-5.1273 -1.40767,-4.3511 -1.05196,-2.0218 -2.2359,-6.082 -3.67452,-7.5718 2.0055,-2.0046 10.68116,-0.4756 14.831859,-0.064 -0.939359,2.3834 3.789013,2.9995 5.166334,0.1441 1.377333,-2.8554 -3.011565,-6.1055 -4.272765,-3.5975 -3.386178,-2.3998 -11.827138,-2.6257 -13.674818,-3.3898 1.77205,-1.1294 7.03841,-0.6008 8.13312,-0.9127 0.51313,1.3258 4.666264,0.3928 2.78916,-2.2412 -1.8771,-2.6341 -4.63148,-0.3571 -4.25456,1.0158 -1.39796,-0.8708 -3.09405,-1.2752 -4.6212,-1.2315 -3.27233,0.093 -7.90866,1.5196 -10.12677,2.9827 -1.3424,-0.415 -2.63649,0.4516 -6.29314,0.5888 1.49235,-1.2658 1.22482,-2.2666 1.15338,-2.6768 -0.3432,-1.9708 -3.15899,-3.0857 -4.60619,-3.2916 0.0678,-0.039 2.17005,-1.9161 1.6522,-1.5762 -0.15632,0.1021 -4.48,0.4295 -5.01841,-0.081 -0.54542,-0.5178 -2.31325,-10.001 -7.9255,-11.1166 -6.29813,-1.2519 -9.8566,-3.509 -18.45197,-2.1888 -0.6623,-3.7982 16.53277,-0.5174 19.85917,0.2624 4.21233,0.9874 7.97821,11.1082 7.84529,12.1839 -1.65561,5.0402 5.89471,1.1292 8.52604,-0.032 2.97533,-1.4215 6.715,-7.2009 8.16814,-9.3026 0.10544,1.5618 -0.37172,5.6201 0.48495,7.5427 2.49493,1.3557 9.26451,3.3676 16.174919,6.0979 3.111629,-2.6347 7.840695,0.5819 10.456565,2.4833 -1.132677,0.6343 0.7985,4.1865 2.941336,1.9964 2.142818,-2.1902 -0.950794,-3.626 -1.967252,-3.0594 -1.32727,-1.2448 -0.943251,-3.6577 -3.3389,-4.7769 2.986846,-1.5898 4.268409,-1.7203 4.220523,-2.3139 1.044387,1.0453 3.734916,0.1649 2.606527,-2.1484 -1.128378,-2.3132 -3.818279,-0.6312 -3.361091,1.1757 -1.195647,-0.1 -3.531549,1.2906 -4.925874,0.028 -1.493503,-1.3517 -2.214331,-5.2951 -3.11313,-5.4681 2.203455,-5.9878 -6.011603,-1.814 -0.919862,0.3285 -0.744611,1.0886 0.06472,4.7658 -0.212655,5.7706 -2.152124,-2.0619 -8.350416,-5.1913 -12.429906,-6.1965 1.20328,-3.9014 7.34949,-12.1027 3.28089,-16.6829 1.94886,-2.3661 2.19515,-5.4419 3.04627,-9.8451 2.970595,-2.1202 6.051453,-5.2591 8.40207,-8.2463 0.05758,-0.074 1.251062,-1.6023 1.450724,-2.0992 0.476566,-1.1862 -7.222171,-4.6402 -7.271853,-3.1348 -0.08047,2.4373 -10.081951,6.362 -10.901141,7.0076 -1.05919,0.8345 -1.95108,-9.4441 1.46967,-10.6998 1.59531,-0.5857 4.89882,-0.8853 6.16879,1.9809 0.21931,0.4949 2.44324,5.2589 1.42907,6.2151 -1.47217,1.388 8.733073,-0.7003 8.7799,-0.7658 2.141457,-2.9886 3.358106,-5.6068 2.732409,-6.5775 -4.17254,-6.472 -8.114314,-7.8713 -14.476159,-7.8467 -0.0539,-0.2873 -3.41426,-6.9494 -6.57507,-6.3439 -6.92441,1.3265 -4.84999,9.8639 -6.13326,10.5551 -10.42103,5.6129 -12.90889,14.2686 -16.01991,16.3067 z"
         style="display:inline;fill:#ffffff;fill-opacity:1;stroke:none;stroke-width:1.23035" />
      <path
         sodipodi:nodetypes="scscccccccccccccccccccccccccccsccccccccccccccccsccccccccsscscscscczcsscc"
         inkscape:connector-curvature="0"
         id="path3970-5-3"
         d="m -1.2873678,2439.0417 c -0.8161236,2.0681 -19.6737122,19.8813 -16.1200762,33.1784 3.553758,13.2966 3.486454,28.2269 -2.942553,34.3298 -6.429117,6.1027 -25.149395,13.1313 -33.562171,5.2027 0.293157,-5.096 1.562511,-7.3843 2.473451,-9.3394 -4.440433,-5.8062 -2.346862,-7.1746 -7.718873,-10.0217 0.980033,-1.2407 -1.3599,-4.8435 -1.833765,-7.2072 -1.442803,0.4213 -0.37621,5.1032 -0.938206,4.4778 -1.423998,-1.583 -3.183935,-3.4249 -3.66753,-3.5396 -0.718659,-0.1707 2.413283,4.9483 1.492599,4.7763 -2.198458,-0.4102 -4.570213,-0.7647 -5.16013,-0.5117 2.133841,1.7996 5.09404,3.5504 4.093987,4.3499 -1.418361,1.1341 -1.719883,2.817 -1.705827,3.6674 2.537057,-0.9383 5.142035,-2.3256 5.330714,-1.6204 0.433306,1.6183 1.614231,2.0729 3.07049,3.4969 -2.198554,3.3089 -3.406403,7.8907 -4.008697,8.7425 -8.343179,-3.6374 -14.670109,-2.7495 -28.359394,-6.0557 1.448959,-1.1527 4.764761,-9.62 5.927753,-11.5572 -0.928497,-2.4315 -2.889961,-3.6689 -4.989547,-4.094 -0.601953,-1.2929 -4.115844,-5.2844 -5.288068,-4.5202 0.37716,0.8056 2.219303,2.2876 1.79112,4.1791 -1.462035,-1.003 -2.219054,-2.1853 -4.264571,-0.9808 1.259177,0.5343 3.387292,1.1396 2.857262,2.3882 0.427623,0.7858 -2.303818,1.1226 -2.601388,2.0043 0.591219,0.5947 3.040332,-0.864 3.88076,-0.1283 1.015328,0.8896 2.205801,1.8798 3.624885,2.9852 -3.663722,3.8172 -2.155724,1.903 -5.842462,8.5717 -2.718841,-0.679 -11.182155,-2.0637 -19.275855,-2.4734 -1.37141,-0.069 -1.95817,-2.5233 -4.64838,-2.0044 -3.72049,0.7178 -2.3794,3.2968 -3.75282,3.9659 -11.09114,5.4048 -18.01605,19.7908 3.49695,14.6277 3.41832,-0.8204 6.467,-1.3852 9.08353,-1.3647 2.62128,0.02 4.82192,0.643 8.57178,3.1559 0.63773,1.2459 -0.69775,6.513 0.0852,10.8319 -1.46087,1.2925 -3.21524,0.5796 -4.5631,1.7484 -1.27969,-0.6808 -5.09382,-1.5135 -6.05567,-0.6823 2.31968,0.5924 3.58224,1.6207 3.58224,1.6207 -0.82666,0.869 -1.88896,1.2818 -2.77197,3.113 2.08131,-1.0983 2.91161,-0.7437 4.00869,-1.194 -0.0205,1.1832 -1.31385,1.9564 -2.43081,3.6675 2.01741,-1.0341 2.89627,-1.6677 4.52044,-2.6015 2.11513,-1.2162 7.213776,-2.0647 9.680579,-3.5395 -0.07604,-5.5407 -1.438818,-10.2748 -0.639685,-10.7468 3.380091,3.107 35.627428,2.4147 33.775398,8.1454 -1.017027,0.7895 1.722218,2.8117 3.113137,5.1175 -4.720408,1.4714 -3.691535,3.5879 -6.183627,4.0938 -0.599033,0.1216 -0.431848,-2.4428 -2.260222,-3.5822 -1.472077,1.5582 -0.967914,3.9662 -1.748474,3.9662 -0.115955,0 -5.463086,-0.5289 -5.842462,-0.1283 -0.640764,0.6771 3.812785,2.4749 5.373358,2.7719 -0.250511,1.8668 -5.73588,3.0068 -5.842461,4.819 0.940894,1.2473 5.830971,-1.9596 7.079187,-2.047 0.422281,2.2576 -4.003961,6.8795 -2.260222,7.8042 3.053733,-1.1017 3.953673,-4.7557 5.75717,-6.6527 4.630506,-1.0751 4.395511,0.377 16.333306,-9.8513 -1.865468,-1.6741 -4.778191,-5.7034 -5.40382,-6.6588 17.677321,1.953 32.954075,-3.6028 40.952061,-13.4029 7.9980001,-9.8 12.0580666,-25.7179 5.3916346,-38.3201 -6.6665116,-12.6025 7.84189745,-34.4056 7.3350618,-36.974 z m -116.3374822,67.6787 c 1.57297,0 4.22191,2.3972 4.22191,3.0279 -1.06612,-0.5875 -2.00925,-0.6398 -3.58222,-0.6398 -1.57298,0 -3.87467,0.6252 -4.81896,1.1516 0,-0.631 2.6063,-3.5397 4.17927,-3.5397 z m 10.69798,-2.6318 c 3.71483,-1.2595 15.257219,4.2397 25.470496,6.6302 8.844489,2.0702 18.306623,3.5147 21.598176,5.4262 3.291554,1.9116 28.328601,10.101 43.370683,-6.1774 -10.705236,14.051 -30.394748,13.4405 -44.795226,7.5902 -7.735298,-3.1428 -14.984188,-4.5278 -20.653283,-5.5819 -10.354175,-1.9255 -8.878864,-4.6679 -24.990846,-7.8873 z"
         style="display:inline;fill:#ffffff;fill-opacity:1;stroke:none;stroke-width:1.07359" />
    </g>
  </g>
</svg>
