<?xml version="1.0" encoding="UTF-8" standalone="no"?>
<!-- Created with Inkscape (http://www.inkscape.org/) -->

<svg
   width="100%"
   height="100%"
   viewBox="0 0 99.999997 99.999997"
   id="svg8780"
   version="1.1"
   inkscape:version="1.3 (0e150ed6c4, 2023-07-21)"
   sodipodi:docname="unknown (copy).svg"
   xmlns:inkscape="http://www.inkscape.org/namespaces/inkscape"
   xmlns:sodipodi="http://sodipodi.sourceforge.net/DTD/sodipodi-0.dtd"
   xmlns="http://www.w3.org/2000/svg"
   xmlns:svg="http://www.w3.org/2000/svg"
   xmlns:rdf="http://www.w3.org/1999/02/22-rdf-syntax-ns#"
   xmlns:cc="http://creativecommons.org/ns#"
   xmlns:dc="http://purl.org/dc/elements/1.1/">
  <defs
     id="defs8782" />
  <sodipodi:namedview
     id="base"
     pagecolor="#ffffff"
     bordercolor="#666666"
     borderopacity="1.0"
     inkscape:pageopacity="0.0"
     inkscape:pageshadow="2"
     inkscape:zoom="2.8"
     inkscape:cx="-43.035714"
     inkscape:cy="46.25"
     inkscape:document-units="px"
     inkscape:current-layer="layer1"
     showgrid="false"
     fit-margin-top="0"
     fit-margin-left="0"
     fit-margin-right="0"
     fit-margin-bottom="0"
     inkscape:window-width="2560"
     inkscape:window-height="1371"
     inkscape:window-x="0"
     inkscape:window-y="32"
     inkscape:window-maximized="1"
     inkscape:showpageshadow="2"
     inkscape:pagecheckerboard="true"
     inkscape:deskcolor="#d1d1d1" />
  <metadata
     id="metadata8785">
    <rdf:RDF>
      <cc:Work
         rdf:about="">
        <dc:format>image/svg+xml</dc:format>
        <dc:type
           rdf:resource="http://purl.org/dc/dcmitype/StillImage" />
      </cc:Work>
    </rdf:RDF>
  </metadata>
  <g
     inkscape:label="Layer 1"
     inkscape:groupmode="layer"
     id="layer1"
     transform="translate(-327.14285,-456.64792)">
    <path
       id="rect1"
       style="fill:#b7c0c8;fill-opacity:1;stroke-width:2.039;stroke-linecap:round;stroke-linejoin:round"
       d="m 327.14285,456.64792 h 100 v 100 h -100 z" />
    <path
       style="display:inline;fill:#ffffff;fill-opacity:1;stroke:none;stroke-width:1.11048"
       d="m 371.31825,491.77224 c -4.2446,2.48783 -16.76104,6.919 -20.9895,12.52467 -3.18164,4.21791 -3.77874,12.23068 -2.07283,14.32739 -1.03126,1.02152 -3.73048,2.45751 -3.73931,3.98822 -0.0118,1.90151 0.77037,2.84454 1.14777,3.70626 0.98851,2.25726 2.80665,2.49557 8.80091,4.26502 3.76339,1.11094 8.12713,3.10382 12.07711,3.5998 0.39667,0.0499 8.1649,-2.50351 13.64383,-0.62081 3.31146,1.13788 5.65836,5.10244 6.9278,6.20576 -0.94481,0.59387 0.72085,3.32237 2.87319,2.26542 2.1523,-1.05686 0.51887,-3.95466 -1.08572,-3.35591 -0.81145,-1.55949 -1.72461,-4.69114 -2.83421,-5.8403 1.54683,-1.54613 8.23847,-0.36675 11.43992,-0.0499 -0.72456,1.83839 2.92252,2.31349 3.98484,0.11109 1.06237,-2.20236 -2.32283,-4.70921 -3.29563,-2.77468 -2.61181,-1.85105 -9.12239,-2.02531 -10.5475,-2.61467 1.36684,-0.87102 5.42877,-0.46335 6.27313,-0.70398 0.39581,1.02263 3.59913,0.30315 2.15132,-1.72865 -1.44781,-2.03171 -3.57231,-0.27566 -3.28158,0.7835 -1.07823,-0.67162 -2.38649,-0.98348 -3.56434,-0.9498 -2.524,0.0719 -6.10005,1.17204 -7.81091,2.30058 -1.03539,-0.32002 -2.03348,0.34869 -4.85395,0.45408 1.15107,-0.97633 0.94473,-1.74817 0.88963,-2.06458 -0.26466,-1.52014 -2.43655,-2.38009 -3.5528,-2.53881 0.0523,-0.0275 1.6738,-1.47797 1.27438,-1.21578 -0.12055,0.0793 -3.45546,0.33141 -3.87075,-0.0633 -0.4207,-0.39958 -1.78425,-7.71385 -6.113,-8.57431 -4.8578,-0.96557 -7.60248,-2.70651 -14.23216,-1.68828 -0.51083,-2.92955 12.75187,-0.39876 15.3175,0.20222 3.24907,0.76156 6.15368,8.56783 6.05115,9.3975 -1.27699,3.88755 4.5467,0.8709 6.57624,-0.0236 2.29488,-1.09637 5.17932,-5.5542 6.30016,-7.17521 0.0812,1.20467 -0.28665,4.33487 0.37421,5.81775 1.92435,1.04568 7.1458,2.59743 12.47587,4.70331 2.40003,-2.03217 6.04755,0.44891 8.06524,1.91542 -0.87365,0.48923 0.61586,3.22911 2.26865,1.53981 1.65278,-1.68923 -0.73331,-2.79667 -1.51732,-2.35975 -1.02376,-0.96007 -0.72753,-2.82117 -2.57533,-3.68439 2.30373,-1.22626 3.29226,-1.32682 3.25532,-1.78476 0.80552,0.80635 2.88074,0.12723 2.01042,-1.65702 -0.8703,-1.78425 -2.94509,-0.48683 -2.5924,0.90679 -0.92222,-0.077 -2.72394,0.99554 -3.79943,0.0197 -1.15193,-1.04261 -1.70788,-4.08416 -2.40118,-4.21758 1.6996,-4.61844 -4.63676,-1.39916 -0.70947,0.25326 -0.57432,0.83957 0.0499,3.67587 -0.16414,4.45091 -1.65997,-1.59046 -6.44076,-4.00413 -9.58731,-4.7795 0.92812,-3.00918 5.66874,-9.33481 2.5306,-12.86763 1.50314,-1.82496 1.69316,-4.19733 2.34962,-7.5936 2.29123,-1.63536 4.66751,-4.05636 6.48058,-6.36043 0.0444,-0.0565 0.96491,-1.23585 1.11895,-1.61914 0.36755,-0.91492 -5.57052,-3.57902 -5.60885,-2.41793 -0.062,1.87997 -7.77628,4.90715 -8.40816,5.40502 -0.81695,0.64374 -1.50487,-7.2843 1.13356,-8.25283 1.23051,-0.45168 3.77855,-0.68273 4.7581,1.52793 0.16924,0.38167 1.88446,4.05619 1.10222,4.79371 -1.13548,1.07054 6.73586,-0.5402 6.77202,-0.59058 1.65173,-2.30517 2.59014,-4.32467 2.1075,-5.07326 -3.21828,-4.99197 -6.2586,-6.07122 -11.16553,-6.05229 -0.042,-0.22147 -2.63348,-5.36018 -5.0714,-4.8931 -5.3409,1.02318 -3.74089,7.60805 -4.73066,8.14118 -8.03786,4.32927 -9.95677,11.0056 -12.35629,12.57757 z"
       id="path3862-8-9-8"
       inkscape:connector-curvature="0"
       sodipodi:nodetypes="cscsssssczccczccczcsccscssscscccccczccczcsccccccssssssssscsscc"
       inkscape:export-filename="/media/NAS/SiSol/pin_amphibiae.png"
       inkscape:export-xdpi="20.353357"
       inkscape:export-ydpi="20.353357" />
  </g>
</svg>
