<?xml version="1.0" encoding="UTF-8" standalone="no"?>
<!-- Created with Inkscape (http://www.inkscape.org/) -->

<svg
   width="100%"
   height="100%"
   viewBox="0 0 99.999997 99.999997"
   id="svg8780"
   version="1.1"
   inkscape:version="1.3 (0e150ed6c4, 2023-07-21)"
   sodipodi:docname="Holocephali,Elasmobranchii,Sarcopterygii,Actinopterygii.svg"
   xmlns:inkscape="http://www.inkscape.org/namespaces/inkscape"
   xmlns:sodipodi="http://sodipodi.sourceforge.net/DTD/sodipodi-0.dtd"
   xmlns="http://www.w3.org/2000/svg"
   xmlns:svg="http://www.w3.org/2000/svg"
   xmlns:rdf="http://www.w3.org/1999/02/22-rdf-syntax-ns#"
   xmlns:cc="http://creativecommons.org/ns#"
   xmlns:dc="http://purl.org/dc/elements/1.1/">
  <defs
     id="defs8782" />
  <sodipodi:namedview
     id="base"
     pagecolor="#ffffff"
     bordercolor="#666666"
     borderopacity="1.0"
     inkscape:pageopacity="0.0"
     inkscape:pageshadow="2"
     inkscape:zoom="2.8"
     inkscape:cx="-42.678571"
     inkscape:cy="46.25"
     inkscape:document-units="px"
     inkscape:current-layer="layer1"
     showgrid="false"
     fit-margin-top="0"
     fit-margin-left="0"
     fit-margin-right="0"
     fit-margin-bottom="0"
     inkscape:window-width="1499"
     inkscape:window-height="1243"
     inkscape:window-x="57"
     inkscape:window-y="89"
     inkscape:window-maximized="0"
     inkscape:showpageshadow="2"
     inkscape:pagecheckerboard="true"
     inkscape:deskcolor="#d1d1d1" />
  <metadata
     id="metadata8785">
    <rdf:RDF>
      <cc:Work
         rdf:about="">
        <dc:format>image/svg+xml</dc:format>
        <dc:type
           rdf:resource="http://purl.org/dc/dcmitype/StillImage" />
      </cc:Work>
    </rdf:RDF>
  </metadata>
  <g
     inkscape:label="Layer 1"
     inkscape:groupmode="layer"
     id="layer1"
     transform="translate(-327.14285,-456.64792)">
    <path
       id="rect1"
       style="fill:#b7c0c8;fill-opacity:1;stroke-width:2.039;stroke-linecap:round;stroke-linejoin:round"
       d="m 327.14285,456.64792 h 100 v 100 h -100 z" />
    <path
       style="display:inline;fill:#ffffff;fill-opacity:1;stroke:none"
       d="m 344.54976,482.11184 c 1.46103,6.98614 0.83263,11.52019 0.76659,15.29245 1.61613,0.35471 5.82249,2.6978 8.51127,5.68862 -6.472,-4.85902 -7.66402,-4.40176 -8.4917,-4.51982 0.098,2.04402 0.51364,4.45869 1.74173,6.4914 -0.14079,1.90736 -1.11406,4.17834 -1.96439,6.20461 1.05632,-0.31191 1.88375,-0.50069 5.45107,-2.92961 -0.59837,1.17434 -4.09401,3.32857 -6.02712,4.04353 -0.36527,1.00432 -0.61875,1.96765 -0.61458,2.84962 0.0146,3.08536 0.62083,6.21789 1.12869,8.41717 0.83072,-1.17024 6.50727,-5.71935 8.03922,-13.15658 0.14233,4.83142 -6.57246,13.51882 -7.79854,14.23029 0.78933,3.09567 1.46799,5.26721 0.59354,6.8003 7.64079,-3.0133 10.88584,-22.08035 13.55303,-24.90701 5.44046,0.50494 9.60133,3.01547 13.58458,5.39778 0.075,0.0448 -1.28279,2.87004 -0.32754,3.2143 2.07048,0.74618 7.50378,-0.68429 9.05975,-0.53801 1.18778,0.11166 5.07027,-7.75473 1.20123,-7.83514 -3.80383,-0.0791 -11.189,-1.37588 -12.30472,-1.99538 -2.1872,-1.21445 1.38457,-3.55544 1.51608,-4.27697 2.59316,-0.002 10.1063,1.4289 12.8092,0.0577 -1.01403,2.9149 -13.12452,9.67298 -17.08035,6.8829 -2.1944,-1.54774 7.54389,5.91043 7.67603,5.98487 0.52006,0.29289 1.04114,0.57568 1.56573,0.84351 3.2297,1.64891 6.59263,2.73078 10.67226,2.11579 1.6602,-0.25026 3.74602,-0.80963 5.53207,-1.43581 0.37465,-0.13136 -2.04004,-5.24885 -2.70683,-11.54732 -0.4036,-3.81243 0.3069,-8.05753 1.31094,-11.89147 -0.27944,2.94461 -0.0208,7.77574 1.21708,12.67499 1.17436,4.6476 3.31554,9.45271 3.63272,9.29951 6.21647,-3.00264 11.95398,-7.8909 13.56632,-13.42827 -0.9033,-2.88613 -3.50651,-5.51791 -6.83828,-7.661 -0.18702,-0.1203 -4.45064,0.77349 -6.82904,1.16012 -0.86961,0.14136 1.79915,1.18868 3.12136,2.39878 0.25038,0.22916 0.45247,0.46414 0.57311,0.69992 0.48846,0.95469 0.1949,1.62218 -0.16884,2.11964 -0.55665,0.7613 -1.69595,0.77329 -2.44784,0.13043 -1.34508,-1.15002 -0.37125,-3.31129 1.27249,-3.04318 1.82583,0.29783 5.444,2.13386 4.59185,0.87162 -0.26868,-0.39799 1.44551,-1.81147 0.81745,-3.32312 -0.43164,-1.03889 -3.29394,-2.39183 -3.34187,-2.41709 -4.86304,-2.56187 -10.63819,-4.14216 -14.96319,-4.17123 -0.0731,-2.56798 -2.05492,-4.07532 -3.31995,-4.52703 -0.55362,-0.19767 -3.42208,-0.37381 -6.17967,-0.4796 0.52684,0.86342 4.33361,3.44357 4.73553,5.27849 -2.12393,-3.63636 -4.66804,-3.59893 -5.56657,-5.39294 -1.94473,-0.0366 -3.98087,0.009 -5.67669,0.20105 0.39763,0.74541 5.0964,3.79024 6.24419,6.64027 -3.07799,-4.32943 -5.53677,-5.17228 -7.17328,-6.29134 -1.12523,0.27347 -2.44362,0.59079 -2.86364,1.13904 3.69031,2.18079 6.87965,5.5711 7.71906,6.60114 -6.21722,2.71475 -12.10652,6.51717 -15.3921,8.85871 -4.21304,-0.53293 -11.74336,-17.81406 -14.12744,-16.8207 z"
       id="path3862-4"
       inkscape:connector-curvature="0"
       sodipodi:nodetypes="ccccccccscccccsssssccsssssscsscsssssssssscsccccccccccc"
       inkscape:export-filename="/home/tom/anymals_workspace/inkscape/TAXONFILTER/fish.png"
       inkscape:export-xdpi="32.556522"
       inkscape:export-ydpi="32.556522" />
  </g>
</svg>
