<?xml version="1.0" encoding="UTF-8" standalone="no"?>
<!-- Created with Inkscape (http://www.inkscape.org/) -->

<svg
   width="100%"
   height="100%"
   viewBox="0 0 99.999997 99.999997"
   id="svg8780"
   version="1.1"
   inkscape:version="1.3 (0e150ed6c4, 2023-07-21)"
   sodipodi:docname="unknown (copy).svg"
   xmlns:inkscape="http://www.inkscape.org/namespaces/inkscape"
   xmlns:sodipodi="http://sodipodi.sourceforge.net/DTD/sodipodi-0.dtd"
   xmlns="http://www.w3.org/2000/svg"
   xmlns:svg="http://www.w3.org/2000/svg"
   xmlns:rdf="http://www.w3.org/1999/02/22-rdf-syntax-ns#"
   xmlns:cc="http://creativecommons.org/ns#"
   xmlns:dc="http://purl.org/dc/elements/1.1/">
  <defs
     id="defs8782" />
  <sodipodi:namedview
     id="base"
     pagecolor="#ffffff"
     bordercolor="#666666"
     borderopacity="1.0"
     inkscape:pageopacity="0.0"
     inkscape:pageshadow="2"
     inkscape:zoom="5.6"
     inkscape:cx="27.678571"
     inkscape:cy="32.946429"
     inkscape:document-units="px"
     inkscape:current-layer="layer1"
     showgrid="false"
     fit-margin-top="0"
     fit-margin-left="0"
     fit-margin-right="0"
     fit-margin-bottom="0"
     inkscape:window-width="2560"
     inkscape:window-height="1371"
     inkscape:window-x="0"
     inkscape:window-y="32"
     inkscape:window-maximized="1"
     inkscape:showpageshadow="2"
     inkscape:pagecheckerboard="true"
     inkscape:deskcolor="#d1d1d1" />
  <metadata
     id="metadata8785">
    <rdf:RDF>
      <cc:Work
         rdf:about="">
        <dc:format>image/svg+xml</dc:format>
        <dc:type
           rdf:resource="http://purl.org/dc/dcmitype/StillImage" />
      </cc:Work>
    </rdf:RDF>
  </metadata>
  <g
     inkscape:label="Layer 1"
     inkscape:groupmode="layer"
     id="layer1"
     transform="translate(-327.14285,-456.64792)">
    <path
       id="rect1"
       style="fill:#b7c0c8;fill-opacity:1;stroke-width:2.039;stroke-linecap:round;stroke-linejoin:round"
       d="m 327.14285,456.64792 h 100 v 100 h -100 z" />
    <g
       transform="matrix(0.22370576,0,0,0.22370576,-39.676249,243.28438)"
       id="g2"
       style="clip-rule:evenodd;fill-rule:evenodd;stroke-linecap:round;stroke-linejoin:round;stroke-miterlimit:1.5">&#10;            <path
   d="m 1867.88,1360.19 c 0,0 1.1,-5.67 1.28,-8.55 0.34,-5.68 -0.28,-11.57 -2.84,-16.76 -3.28,-6.68 -21.14,-18.63 -14.45,-27.45 5.94,-7.84 18.25,-7.36 26.58,-8.23 15.39,-1.59 34.99,-0.69 42.43,-17.87 2.11,-4.85 3.99,-9.89 4.87,-15.11 0.8,-4.74 0.81,-9.66 0.12,-14.42 -1.24,-8.57 -5.04,-12.16 -11.16,-17.73 -13.63,-12.43 -30.95,-14.63 -47.37,-5.25 -7.83,4.48 -14.96,10.09 -22.53,15.01 -11.86,7.72 -23.74,13.19 -34.75,0.31 -11.8,-13.79 -6.62,-35.59 8.42,-44.85 6.25,-3.85 13.53,-4.74 20.81,-4.59 25.78,0.54 47.27,21.34 74.02,17.9 28.48,-3.66 43.01,-28.47 38.29,-54.93 -1.07,-6.01 -3.04,-11.72 -6.72,-16.66 -5.06,-6.77 -13.43,-11.28 -21.5,-13.29 -7.28,-1.81 -14.63,-3.4 -22.06,-4.4 -14.57,-1.95 -33.24,5.3 -46.49,7.93 -7.52,1.49 -21.98,4.46 -27.81,-3.35 -4.05,-5.42 -4.23,-14.95 3.67,-16.86 11.72,-2.84 19.86,-1.42 31.81,-2.13 2.47,-0.15 7.92,-0.65 9.58,-3.59 7.14,-12.64 7.12,-20.87 9.14,-34.24 1.2,-7.94 8.06,-16.31 7.34,-24.46 -0.74,-8.3 -2.52,-7.68 -5.32,-15.54 -2,-5.6 -2.31,-15.14 -9.8,-16.07 -0.29,-0.03 -1,-12.18 -1,-12.18 0.86,-2.883 4.36,-8.034 4.36,-8.034 l -2.15,0.017 c 0,0 -1.91,3.418 -2.96,5.217 -1.63,-2.317 -2.78,-4.822 -2.78,-4.822 l -1.81,-0.845 c 0,0 0.98,3.951 3.06,8.497 0,0 0.1,12.09 -0.27,12.15 -7.67,1.18 -6.85,9.99 -8.93,16.11 -3.5,10.27 -8.6,14.26 -3.97,26.2 0.69,1.78 2.51,2.89 3.59,4.46 3.07,4.46 3.9,11.13 1.62,16.18 -3.34,7.42 -10.88,6.95 -17.71,7.68 -15.37,1.65 -35.82,1.64 -42.93,18.93 -1.65,4 -2.78,8.34 -2.8,12.66 -0.03,4.22 0.95,8.52 2.65,12.39 2.07,4.7 5.29,8.84 8.44,12.9 20.14,25.9 54.24,10.05 79.41,3.5 15.03,-3.91 30.49,-1.64 34.02,15.93 0.73,3.68 0.79,7.49 0.5,11.23 -0.89,11.27 -11.13,12.61 -20.27,10.07 -14.6,-4.06 -28.81,-9.48 -43.49,-13.25 -24.66,-6.32 -52.02,-7.65 -69.57,14.12 -3.33,4.13 -6.18,8.67 -8.51,13.44 -2.83,5.8 -5.09,11.89 -6.88,18.09 -1.82,6.26 -1.03,13.3 0.61,19.46 5.3,19.93 23.4,44.37 46.27,44.15 22.23,-0.21 37.37,-16.45 54.74,-27.89 8.81,-5.8 23.92,-11.93 29.89,1.63 1.02,2.31 1.05,5 0.89,7.52 -1.3,20.04 -23.35,21.06 -38.16,24.1 -5.71,1.17 -11.51,2.1 -17.03,3.98 -2.39,0.82 -4.61,2.26 -6.41,4.03 -16.4,16.06 5.09,33.43 14.18,45.03 3.12,3.98 5.22,9.83 6.42,14.71 0.63,2.57 -0.06,5.62 1.42,7.82 z"
   style="fill:#ffffff"
   id="path1" />
&#10;        </g>
  </g>
</svg>
