<?xml version="1.0" encoding="UTF-8" standalone="no"?>
<!-- Created with Inkscape (http://www.inkscape.org/) -->

<svg
   width="100%"
   height="100%"
   viewBox="0 0 99.999997 99.999997"
   id="svg8780"
   version="1.1"
   inkscape:version="1.3 (0e150ed6c4, 2023-07-21)"
   sodipodi:docname="unknown.svg"
   xmlns:inkscape="http://www.inkscape.org/namespaces/inkscape"
   xmlns:sodipodi="http://sodipodi.sourceforge.net/DTD/sodipodi-0.dtd"
   xmlns="http://www.w3.org/2000/svg"
   xmlns:svg="http://www.w3.org/2000/svg"
   xmlns:rdf="http://www.w3.org/1999/02/22-rdf-syntax-ns#"
   xmlns:cc="http://creativecommons.org/ns#"
   xmlns:dc="http://purl.org/dc/elements/1.1/">
  <defs
     id="defs8782" />
  <sodipodi:namedview
     id="base"
     pagecolor="#ffffff"
     bordercolor="#666666"
     borderopacity="1.0"
     inkscape:pageopacity="0.0"
     inkscape:pageshadow="2"
     inkscape:zoom="2.8"
     inkscape:cx="-42.857143"
     inkscape:cy="46.25"
     inkscape:document-units="px"
     inkscape:current-layer="layer1"
     showgrid="false"
     fit-margin-top="0"
     fit-margin-left="0"
     fit-margin-right="0"
     fit-margin-bottom="0"
     inkscape:window-width="1499"
     inkscape:window-height="1243"
     inkscape:window-x="57"
     inkscape:window-y="89"
     inkscape:window-maximized="0"
     inkscape:showpageshadow="2"
     inkscape:pagecheckerboard="true"
     inkscape:deskcolor="#d1d1d1" />
  <metadata
     id="metadata8785">
    <rdf:RDF>
      <cc:Work
         rdf:about="">
        <dc:format>image/svg+xml</dc:format>
        <dc:type
           rdf:resource="http://purl.org/dc/dcmitype/StillImage" />
      </cc:Work>
    </rdf:RDF>
  </metadata>
  <g
     inkscape:label="Layer 1"
     inkscape:groupmode="layer"
     id="layer1"
     transform="translate(-327.14285,-456.64792)">
    <path
       id="rect1"
       style="fill:#b7c0c8;fill-opacity:1;stroke-width:2.039;stroke-linecap:round;stroke-linejoin:round"
       d="m 327.14285,456.64792 h 100 v 100 h -100 z" />
    <path
       style="display:inline;fill:#ffffff;fill-opacity:1;stroke:none;stroke-width:0.798893"
       d="m 350.41639,522.60837 c 0.25135,-4.10612 0.52046,-7.66026 2.19717,-13.19178 -0.0217,-0.009 2.27824,-3.44941 2.47975,-3.99953 0.30687,-0.83784 -0.85195,-7.41678 -2.35801,-13.18063 -0.0435,-0.16655 2.35901,-1.81826 3.5185,-8.98593 -1.60164,5.328 -4.02064,6.95758 -4.07215,6.76833 -0.70989,-2.60744 -1.52575,-4.6965 -2.11855,-5.85556 -2.07079,-4.04878 -5.87787,-9.0306 -9.7149,-12.07027 1.59447,1.29572 5.02639,6.0943 7.75227,12.8228 -0.84418,-0.75588 -2.24783,-1.31598 -5.50419,-1.84459 3.2477,1.03399 4.87124,2.63065 5.97998,3.60822 1.10085,2.89778 2.05979,6.03532 2.69856,9.23782 -0.42295,-0.27007 -6.53878,-2.4132 -8.21532,-1.89121 2.46771,0.67321 8.74683,3.75307 8.89787,3.84218 1.93091,6.28193 2.81141,11.35788 1.20453,11.86346 -0.2202,0.0693 -0.95148,-0.4922 -0.96174,-0.4969 -13.25434,-6.05784 -13.60405,-28.51878 -15.9766,-39.84957 5.52397,-2.25315 12.49369,4.72203 16.17864,7.43967 7.9267,5.84603 10.38752,18.78084 2.06022,32.8924 -1.37423,3.95877 -0.76131,8.5799 -0.72906,13.00746 0.18245,1.06195 -3.87434,4.69082 -3.31697,-0.11637 z"
       id="path4622-7"
       inkscape:connector-curvature="0"
       sodipodi:nodetypes="ccsscsscccccccsscsccc"
       inkscape:export-filename="/home/tom/anymals_workspace/inkscape/TAXONFILTER/plants.png"
       inkscape:export-xdpi="32.556522"
       inkscape:export-ydpi="32.556522" />
    <path
       style="display:inline;fill:#ffffff;fill-opacity:1;stroke:none"
       d="m 366.81246,522.19011 c 1.04452,4.52755 0.59525,7.46597 0.54804,9.9107 1.15541,0.22986 4.16258,1.74838 6.08481,3.68666 -4.62691,-3.14902 -5.47908,-2.85269 -6.07081,-2.92919 0.0701,1.32467 0.36722,2.88957 1.24519,4.20693 -0.10072,1.23612 -0.79646,2.70788 -1.40436,4.02107 0.75516,-0.20213 1.34671,-0.32448 3.89701,-1.89861 -0.42777,0.76106 -2.92685,2.15718 -4.30884,2.62052 -0.26115,0.65088 -0.44236,1.27519 -0.43938,1.84677 0.0101,1.99957 0.44385,4.02969 0.80691,5.45499 0.5939,-0.75841 4.65211,-3.70658 5.74731,-8.52649 1.48244,3.14528 -4.15015,7.44362 4.5383,-2.51224 3.88944,0.32726 6.86409,1.95427 9.71173,3.4982 0.0537,0.0289 -0.91707,1.86001 -0.23416,2.08312 1.48022,0.48358 5.36453,-0.44348 6.47693,-0.34867 0.84913,0.0723 3.62477,-5.02567 0.85875,-5.0778 -2.71941,-0.0512 -7.99913,-0.89167 -8.79676,-1.29315 -1.56366,-0.78705 0.98983,-2.3042 1.08386,-2.77181 1.85386,-8.2e-4 7.22509,0.92605 9.15741,0.0372 -0.72493,1.88908 -9.38284,6.26884 -12.21089,4.46065 -1.56881,-1.00304 5.3932,3.83044 5.48766,3.87866 0.37179,0.18983 0.74432,0.3731 1.11935,0.54667 2.30894,1.06862 4.71314,1.76977 7.62972,1.37119 1.18688,-0.16216 2.67807,-0.52469 3.95492,-0.93051 0.26786,-0.085 -1.45844,-3.40165 -1.93513,-7.48357 -0.28856,-2.47075 0.2194,-5.22191 0.93721,-7.7066 -0.19977,1.90835 -0.0149,5.03929 0.87011,8.21438 0.83955,3.01202 2.3703,6.12611 2.59705,6.02682 4.44422,-1.94595 8.54603,-5.11393 9.6987,-8.70258 -0.64578,-1.87042 -2.50684,-3.57602 -4.88875,-4.96492 -0.13371,-0.0779 -3.18181,0.50129 -4.88214,0.75186 -0.62172,0.0916 1.28621,0.77035 2.23148,1.55459 0.17899,0.14852 0.32347,0.3008 0.40973,0.4536 0.34919,0.61872 0.13933,1.05131 -0.12078,1.37369 -0.39797,0.49338 -1.21245,0.50117 -1.74999,0.0845 -0.96161,-0.74531 -0.2654,-2.14598 0.90972,-1.97222 1.3053,0.193 3.89198,1.38289 3.28278,0.56487 -0.19211,-0.25792 1.03339,-1.17398 0.5844,-2.15364 -0.3086,-0.67328 -2.35489,-1.55009 -2.38914,-1.56645 -3.47665,-1.66031 -7.60537,-2.68445 -10.69734,-2.70329 -0.0522,-1.66425 -1.46909,-2.64112 -2.37347,-2.93387 -0.3958,-0.12811 -2.44648,-0.24226 -4.41791,-0.31082 0.37664,0.55957 3.09813,2.2317 3.38548,3.42088 -1.51842,-2.35666 -3.33723,-2.3324 -3.9796,-3.49506 -1.39031,-0.0237 -2.84596,0.006 -4.05832,0.1303 0.28427,0.48309 3.64346,2.45638 4.46404,4.30342 -2.20049,-2.80582 -3.95831,-3.35204 -5.12826,-4.07728 -0.80444,0.17723 -1.74696,0.38287 -2.04724,0.73819 2.63823,1.41331 4.91832,3.6105 5.51843,4.27805 -4.44475,1.75936 -8.65507,4.22364 -11.00395,5.74113 -3.01195,-0.34538 -8.39546,-11.5449 -10.09987,-10.90112 z"
       id="path3862-4-2"
       inkscape:connector-curvature="0"
       sodipodi:nodetypes="ccccccccscccsssssccsssssscsscsssssssssscsccccccccccc"
       inkscape:export-filename="/home/tom/anymals_workspace/inkscape/TAXONFILTER/animals.png"
       inkscape:export-xdpi="32.556522"
       inkscape:export-ydpi="32.556522" />
    <g
       transform="matrix(0.53764486,0,0,0.53764486,360.62412,224.76235)"
       id="g6184-6-7"
       style="display:inline;fill:#ffffff;fill-opacity:1">
      <path
         inkscape:export-ydpi="20.341974"
         inkscape:export-xdpi="20.341974"
         inkscape:export-filename="/media/NAS/SiSol/pin_insects.png"
         style="display:inline;fill:#ffffff;fill-opacity:1;stroke:none"
         d="m 68.865634,486.12449 c -1.40032,-14.26108 15.81526,-3.48002 2.67093,1.77679 -0.20828,6.29099 -9.81966,16.36651 -13.64909,23.54008 -3.42288,6.412 -5.76928,5.04892 -2.40942,-1.44978 3.61616,-6.99445 7.58775,-21.67659 13.38758,-23.86709 z"
         id="path3090-3-2-9"
         inkscape:connector-curvature="0"
         sodipodi:nodetypes="ccssc" />
      <path
         inkscape:export-ydpi="20.341974"
         inkscape:export-xdpi="20.341974"
         inkscape:export-filename="/media/NAS/SiSol/pin_insects.png"
         sodipodi:nodetypes="sccsccsss"
         inkscape:connector-curvature="0"
         id="path3927-2-3-9-2"
         d="m 56.807644,459.01338 c 6.69774,4.11194 11.66118,19.64681 9.08793,28.72648 -1.32407,1.37105 -4.30364,4.27797 -5.14115,6.52104 -1.03594,3.17138 -15.06644,12.68824 -20.05556,22.1452 -1.85986,3.52542 -5.91273,-6.32555 -6.39529,-10.89098 -0.46186,-3.01293 -1.58145,-11.40234 8.35161,-13.20835 -1.79772,-1.43817 -10.26097,-5.58398 -8.45805,-10.12498 7.12543,-17.94674 5.45109,-28.82134 11.384,-29.44908 3.93054,-0.41588 7.98699,4.29182 11.22651,6.28067 z"
         style="display:inline;fill:#ffffff;fill-opacity:1;stroke:none" />
      <path
         inkscape:export-ydpi="20.341974"
         inkscape:export-xdpi="20.341974"
         inkscape:export-filename="/media/NAS/SiSol/pin_insects.png"
         style="display:inline;fill:#ffffff;fill-opacity:1;stroke:none"
         d="m 100.50923,485.18816 c -6.839986,-3.87071 -22.836316,-0.69498 -29.536116,5.95143 -0.55879,1.82226 -1.66047,5.83652 -3.21794,7.65509 -2.27375,2.44147 -3.81067,19.32529 -9.67131,28.26834 -2.18477,3.33386 8.39707,2.11238 12.62566,0.32494 2.86004,-1.05414 10.7432,-4.135 7.51587,-13.70116 2.1286,0.87703 9.85274,6.27628 12.95376,2.50071 12.255726,-14.9216 22.582096,-18.71986 20.259796,-24.21538 -1.53851,-3.64074 -7.6214,-4.91183 -10.92972,-6.78397 z"
         id="path3086-4-1-0"
         inkscape:connector-curvature="0"
         sodipodi:nodetypes="sccsccsss" />
    </g>
  </g>
</svg>
