<?xml version="1.0" encoding="UTF-8" standalone="no"?>
<!-- Created with Inkscape (http://www.inkscape.org/) -->

<svg
   width="7.3894458mm"
   height="10.982319mm"
   viewBox="0 0 26.183076 38.913728"
   id="svg5278"
   version="1.1"
   inkscape:version="1.3 (0e150ed6c4, 2023-07-21)"
   sodipodi:docname="Anura.svg"
   inkscape:export-filename="Anura.png"
   inkscape:export-xdpi="96.245377"
   inkscape:export-ydpi="96.245377"
   xmlns:inkscape="http://www.inkscape.org/namespaces/inkscape"
   xmlns:sodipodi="http://sodipodi.sourceforge.net/DTD/sodipodi-0.dtd"
   xmlns="http://www.w3.org/2000/svg"
   xmlns:svg="http://www.w3.org/2000/svg"
   xmlns:rdf="http://www.w3.org/1999/02/22-rdf-syntax-ns#"
   xmlns:cc="http://creativecommons.org/ns#"
   xmlns:dc="http://purl.org/dc/elements/1.1/">
  <defs
     id="defs5280" />
  <sodipodi:namedview
     id="base"
     pagecolor="#ffffff"
     bordercolor="#666666"
     borderopacity="1.0"
     inkscape:pageopacity="0.0"
     inkscape:pageshadow="2"
     inkscape:zoom="5.6"
     inkscape:cx="-4.9107143"
     inkscape:cy="36.875"
     inkscape:document-units="px"
     inkscape:current-layer="layer1"
     showgrid="false"
     showborder="false"
     fit-margin-top="0"
     fit-margin-left="0"
     fit-margin-right="0"
     fit-margin-bottom="0"
     inkscape:window-width="1499"
     inkscape:window-height="1243"
     inkscape:window-x="37"
     inkscape:window-y="69"
     inkscape:window-maximized="0"
     inkscape:showpageshadow="2"
     inkscape:pagecheckerboard="0"
     inkscape:deskcolor="#d1d1d1" />
  <metadata
     id="metadata5283">
    <rdf:RDF>
      <cc:Work
         rdf:about="">
        <dc:format>image/svg+xml</dc:format>
        <dc:type
           rdf:resource="http://purl.org/dc/dcmitype/StillImage" />
        <dc:title />
      </cc:Work>
    </rdf:RDF>
  </metadata>
  <g
     inkscape:label="Layer 1"
     inkscape:groupmode="layer"
     id="layer1"
     transform="translate(-338.33703,-464.33391)">
    <path
       sodipodi:nodetypes="cccsc"
       inkscape:connector-curvature="0"
       id="path4902-9-6"
       d="m 364.22002,477.42532 c 0.0581,8.894 -8.89417,19.7426 -12.7916,25.2925 -3.77013,-5.623 -12.69906,-16.4953 -12.79158,-25.2925 0,-7.0646 5.72699,-12.7916 12.79158,-12.7916 7.06461,0 12.7916,5.727 12.7916,12.7916 z"
       style="display:inline;fill:#367a00;fill-opacity:1;stroke:#ffffff;stroke-width:0.599612;stroke-miterlimit:4;stroke-dasharray:none;stroke-opacity:1"
       inkscape:export-filename="/home/tom/localcosmos_workspace/lclogo-text.png"
       inkscape:export-xdpi="86"
       inkscape:export-ydpi="86" />
    <path
       style="display:inline;fill:#ffffff;fill-opacity:1;stroke:none;stroke-width:0.26512799"
       d="m 349.50223,474.919 c -1.0134,0.59397 -4.0017,1.65191 -5.01125,2.99027 -0.75962,1.00702 -0.90217,2.92007 -0.49488,3.42066 -0.24622,0.24389 -0.89066,0.58674 -0.89277,0.95219 -0.003,0.45399 0.18393,0.67914 0.27403,0.88487 0.23601,0.53892 0.67009,0.59582 2.10122,1.01828 0.89851,0.26523 1.94036,0.74103 2.88342,0.85945 0.0947,0.0119 1.94937,-0.59771 3.25746,-0.14822 0.79061,0.27167 1.35094,1.21821 1.65401,1.48163 -0.22557,0.14178 0.17211,0.79321 0.68598,0.54087 0.51386,-0.25233 0.12388,-0.94418 -0.25922,-0.80123 -0.19373,-0.37233 -0.41175,-1.12001 -0.67667,-1.39437 0.36931,-0.36914 1.96694,-0.0876 2.73129,-0.0119 -0.17299,0.43892 0.69775,0.55235 0.95138,0.0265 0.25364,-0.52582 -0.55458,-1.12433 -0.78683,-0.66246 -0.62357,-0.44194 -2.17797,-0.48354 -2.51822,-0.62425 0.32633,-0.20796 1.29612,-0.11063 1.49771,-0.16808 0.0945,0.24416 0.8593,0.0724 0.51363,-0.41271 -0.34567,-0.48507 -0.85289,-0.0658 -0.78348,0.18706 -0.25743,-0.16035 -0.56977,-0.23481 -0.85099,-0.22677 -0.6026,0.0172 -1.45638,0.27983 -1.86485,0.54927 -0.2472,-0.0764 -0.4855,0.0832 -1.15888,0.10841 0.27482,-0.2331 0.22555,-0.41738 0.2124,-0.49292 -0.0632,-0.36293 -0.58173,-0.56825 -0.84823,-0.60614 0.0125,-0.007 0.39961,-0.35287 0.30425,-0.29027 -0.0288,0.0189 -0.82499,0.0791 -0.92414,-0.0151 -0.10044,-0.0954 -0.42599,-1.84168 -1.45948,-2.04712 -1.1598,-0.23053 -1.81509,-0.64618 -3.39793,-0.40308 -0.12196,-0.69943 3.04451,-0.0952 3.65706,0.0483 0.77571,0.18182 1.46919,2.04557 1.44471,2.24366 -0.30488,0.92815 1.08552,0.20793 1.57008,-0.006 0.5479,-0.26176 1.23656,-1.32607 1.50416,-1.71309 0.0194,0.28762 -0.0684,1.03496 0.0893,1.38899 0.45944,0.24966 1.70606,0.62014 2.97861,1.12292 0.57301,-0.48518 1.44386,0.10718 1.92558,0.45731 -0.20858,0.1168 0.14704,0.77095 0.54164,0.36763 0.39461,-0.40331 -0.17508,-0.66771 -0.36226,-0.56339 -0.24442,-0.22922 -0.1737,-0.67356 -0.61486,-0.87965 0.55002,-0.29277 0.78603,-0.31678 0.77721,-0.42611 0.19232,0.19251 0.68778,0.0304 0.47999,-0.39562 -0.20779,-0.42599 -0.70314,-0.11623 -0.61894,0.2165 -0.22018,-0.0184 -0.65034,0.23768 -0.90711,0.005 -0.27503,-0.24892 -0.40776,-0.97509 -0.57328,-1.00695 0.40577,-1.10265 -1.10703,-0.33405 -0.16939,0.0605 -0.13712,0.20045 0.0119,0.87761 -0.0392,1.06266 -0.39632,-0.37973 -1.53773,-0.95599 -2.28897,-1.14111 0.22159,-0.71844 1.35341,-2.22869 0.60418,-3.07215 0.35888,-0.43571 0.40424,-1.00211 0.56097,-1.81297 0.54703,-0.39044 1.11437,-0.96846 1.54724,-1.51856 0.0106,-0.0135 0.23038,-0.29506 0.26715,-0.38657 0.0878,-0.21843 -1.32996,-0.85449 -1.33911,-0.57728 -0.0148,0.44885 -1.85659,1.17158 -2.00745,1.29045 -0.19505,0.15369 -0.35929,-1.73913 0.27064,-1.97036 0.29378,-0.10784 0.90212,-0.16301 1.13599,0.36479 0.0404,0.0911 0.44992,0.96842 0.26316,1.1445 -0.2711,0.25559 1.60819,-0.12897 1.61682,-0.141 0.39435,-0.55036 0.61839,-1.03252 0.50317,-1.21124 -0.76837,-1.19184 -1.49425,-1.44951 -2.66578,-1.44499 -0.01,-0.0529 -0.62874,-1.27974 -1.2108,-1.16823 -1.27514,0.24429 -0.89313,1.81643 -1.12944,1.94371 -1.91904,1.03361 -2.37718,2.62759 -2.95007,3.0029 z"
       id="path3862-8-9-8"
       inkscape:connector-curvature="0"
       sodipodi:nodetypes="cscsssssczccczccczcsccscssscscccccczccczcsccccccssssssssscsscc"
       inkscape:export-filename="/media/NAS/SiSol/pin_amphibiae.png"
       inkscape:export-xdpi="20.353357"
       inkscape:export-ydpi="20.353357" />
  </g>
</svg>
