<?xml version="1.0" encoding="UTF-8" standalone="no"?>
<!-- Created with Inkscape (http://www.inkscape.org/) -->

<svg
   width="7.3894458mm"
   height="10.982319mm"
   viewBox="0 0 26.183076 38.913728"
   id="svg5278"
   version="1.1"
   inkscape:version="1.3 (0e150ed6c4, 2023-07-21)"
   sodipodi:docname="Aves.svg"
   inkscape:export-filename="Aves.png"
   inkscape:export-xdpi="96.245377"
   inkscape:export-ydpi="96.245377"
   xmlns:inkscape="http://www.inkscape.org/namespaces/inkscape"
   xmlns:sodipodi="http://sodipodi.sourceforge.net/DTD/sodipodi-0.dtd"
   xmlns="http://www.w3.org/2000/svg"
   xmlns:svg="http://www.w3.org/2000/svg"
   xmlns:rdf="http://www.w3.org/1999/02/22-rdf-syntax-ns#"
   xmlns:cc="http://creativecommons.org/ns#"
   xmlns:dc="http://purl.org/dc/elements/1.1/">
  <defs
     id="defs5280" />
  <sodipodi:namedview
     id="base"
     pagecolor="#ffffff"
     bordercolor="#666666"
     borderopacity="1.0"
     inkscape:pageopacity="0.0"
     inkscape:pageshadow="2"
     inkscape:zoom="5.6"
     inkscape:cx="-4.9107143"
     inkscape:cy="36.875"
     inkscape:document-units="px"
     inkscape:current-layer="layer1"
     showgrid="false"
     showborder="false"
     fit-margin-top="0"
     fit-margin-left="0"
     fit-margin-right="0"
     fit-margin-bottom="0"
     inkscape:window-width="1559"
     inkscape:window-height="1173"
     inkscape:window-x="0"
     inkscape:window-y="32"
     inkscape:window-maximized="0"
     inkscape:showpageshadow="2"
     inkscape:pagecheckerboard="0"
     inkscape:deskcolor="#d1d1d1" />
  <metadata
     id="metadata5283">
    <rdf:RDF>
      <cc:Work
         rdf:about="">
        <dc:format>image/svg+xml</dc:format>
        <dc:type
           rdf:resource="http://purl.org/dc/dcmitype/StillImage" />
        <dc:title />
      </cc:Work>
    </rdf:RDF>
  </metadata>
  <g
     inkscape:label="Layer 1"
     inkscape:groupmode="layer"
     id="layer1"
     transform="translate(-338.33703,-464.33391)">
    <path
       sodipodi:nodetypes="cccsc"
       inkscape:connector-curvature="0"
       id="path4902-9-6"
       d="m 364.22002,477.42532 c 0.0581,8.894 -8.89417,19.7426 -12.7916,25.2925 -3.77013,-5.623 -12.69906,-16.4953 -12.79158,-25.2925 0,-7.0646 5.72699,-12.7916 12.79158,-12.7916 7.06461,0 12.7916,5.727 12.7916,12.7916 z"
       style="display:inline;fill:#3a91a0;fill-opacity:1;stroke:#ffffff;stroke-width:0.599612;stroke-miterlimit:4;stroke-dasharray:none;stroke-opacity:1"
       inkscape:export-filename="/home/tom/localcosmos_workspace/lclogo-text.png"
       inkscape:export-xdpi="86"
       inkscape:export-ydpi="86" />
    <path
       style="display:inline;fill:#ffffff;fill-opacity:1;stroke:none;stroke-width:0.23403327"
       d="m 342.20504,473.6067 c 0.87766,1.28328 2.1456,1.57777 3.10481,1.7457 1.07941,0.18899 1.81121,0.33892 4.1663,2.4879 -0.63099,0.5239 -0.81863,1.07901 -1.23832,1.35418 -0.0858,0.84983 1.41452,0.72451 1.6955,0.39928 0.11598,-0.51923 0.51573,-1.38601 0.9474,-1.14682 0.0574,0.0318 0.12084,0.0662 0.18974,0.10264 0.53754,0.25866 0.77682,0.22315 1.09871,0.34562 0.24918,0.0948 0.60431,-1.15038 -0.14263,-0.82001 -0.45581,0.2016 -1.31778,-0.0201 -1.46679,-0.0847 0.29428,-0.019 1.17961,-0.45836 1.3191,-0.51419 0.28808,-0.1153 0.32723,-0.38205 0.85194,-0.57813 -0.28088,0.31174 -0.4207,0.59835 -0.89746,0.85957 -0.10067,0.0552 -1.14429,0.40165 -1.43331,0.25496 -0.84975,-0.43126 0.79913,0.64912 0.88548,0.64796 0.94436,0.47677 2.59713,1.17207 4.04818,1.18415 1.56319,1.47988 3.96537,3.67909 4.89089,2.76812 0.15375,-0.12741 -0.41081,-0.44423 -0.95121,-1.10253 -0.96564,-1.1763 -2.17154,-3.44438 -3.08465,-3.9845 -0.77966,-0.46118 -2.47972,-0.44339 -3.32307,-0.73637 0.31714,-0.19505 0.46223,-0.29671 0.59191,-0.61075 0.11571,-0.2802 0.84203,-0.45141 1.2062,-0.65001 -0.52923,-0.10489 -1.08131,-0.23323 -1.45175,0.0357 -0.62589,-0.57037 -1.11241,0.29842 -1.53489,0.27344 -2.23772,-0.1323 -2.0081,-1.67533 -2.73678,-2.06782 -3.17345,-0.69945 -4.58891,-0.032 -6.73529,-0.16336 z"
       id="path3862-27-3"
       inkscape:connector-curvature="0"
       sodipodi:nodetypes="cscccscsscscsscccsscsccsccc"
       inkscape:export-filename="/home/tom/anymals_workspace/inkscape/TAXONFILTER/animals.png"
       inkscape:export-xdpi="32.556522"
       inkscape:export-ydpi="32.556522" />
  </g>
</svg>
