<?xml version="1.0" encoding="UTF-8" standalone="no"?>
<!-- Created with Inkscape (http://www.inkscape.org/) -->

<svg
   width="7.3894458mm"
   height="10.982319mm"
   viewBox="0 0 26.183076 38.913728"
   id="svg5278"
   version="1.1"
   inkscape:version="1.3 (0e150ed6c4, 2023-07-21)"
   sodipodi:docname="Holocephali,Elasmobranchii,Sarcopterygii,Actinopterygii.svg"
   inkscape:export-filename="Holocephali,Elasmobranchii,Sarcopterygii,Actinopterygii.png"
   inkscape:export-xdpi="96.245377"
   inkscape:export-ydpi="96.245377"
   xmlns:inkscape="http://www.inkscape.org/namespaces/inkscape"
   xmlns:sodipodi="http://sodipodi.sourceforge.net/DTD/sodipodi-0.dtd"
   xmlns="http://www.w3.org/2000/svg"
   xmlns:svg="http://www.w3.org/2000/svg"
   xmlns:rdf="http://www.w3.org/1999/02/22-rdf-syntax-ns#"
   xmlns:cc="http://creativecommons.org/ns#"
   xmlns:dc="http://purl.org/dc/elements/1.1/">
  <defs
     id="defs5280" />
  <sodipodi:namedview
     id="base"
     pagecolor="#ffffff"
     bordercolor="#666666"
     borderopacity="1.0"
     inkscape:pageopacity="0.0"
     inkscape:pageshadow="2"
     inkscape:zoom="7.9195959"
     inkscape:cx="8.1443549"
     inkscape:cy="23.738585"
     inkscape:document-units="px"
     inkscape:current-layer="layer1"
     showgrid="false"
     showborder="false"
     fit-margin-top="0"
     fit-margin-left="0"
     fit-margin-right="0"
     fit-margin-bottom="0"
     inkscape:window-width="960"
     inkscape:window-height="1016"
     inkscape:window-x="0"
     inkscape:window-y="32"
     inkscape:window-maximized="0"
     inkscape:showpageshadow="2"
     inkscape:pagecheckerboard="0"
     inkscape:deskcolor="#d1d1d1" />
  <metadata
     id="metadata5283">
    <rdf:RDF>
      <cc:Work
         rdf:about="">
        <dc:format>image/svg+xml</dc:format>
        <dc:type
           rdf:resource="http://purl.org/dc/dcmitype/StillImage" />
        <dc:title />
      </cc:Work>
    </rdf:RDF>
  </metadata>
  <g
     inkscape:label="Layer 1"
     inkscape:groupmode="layer"
     id="layer1"
     transform="translate(-338.33703,-464.33391)">
    <path
       sodipodi:nodetypes="cccsc"
       inkscape:connector-curvature="0"
       id="path4902-9-6"
       d="m 364.22002,477.42532 c 0.0581,8.894 -8.89417,19.7426 -12.7916,25.2925 -3.77013,-5.623 -12.69906,-16.4953 -12.79158,-25.2925 0,-7.0646 5.72699,-12.7916 12.79158,-12.7916 7.06461,0 12.7916,5.727 12.7916,12.7916 z"
       style="display:inline;fill:#0947ad;fill-opacity:1;stroke:#ffffff;stroke-width:0.599612;stroke-miterlimit:4;stroke-dasharray:none;stroke-opacity:1"
       inkscape:export-filename="/home/tom/localcosmos_workspace/lclogo-text.png"
       inkscape:export-xdpi="86"
       inkscape:export-ydpi="86" />
    <path
       style="display:inline;fill:#ffffff;fill-opacity:1;stroke:none;stroke-width:0.28183356"
       d="m 342.76459,471.59173 c 0.41177,1.96893 0.23466,3.24678 0.21605,4.30993 0.45548,0.1 1.64097,0.76033 2.39876,1.60324 -1.82402,-1.36944 -2.15997,-1.24056 -2.39324,-1.27384 0.0276,0.57608 0.14475,1.25661 0.49088,1.8295 -0.0397,0.53756 -0.31398,1.17759 -0.55364,1.74866 0.29771,-0.0879 0.53091,-0.1411 1.53629,-0.82566 -0.16863,0.33097 -1.15382,0.93811 -1.69864,1.1396 -0.10294,0.28306 -0.17438,0.55456 -0.1732,0.80312 0.004,0.86956 0.17496,1.75241 0.3181,2.37225 0.23412,-0.32982 1.83396,-1.61191 2.26572,-3.70797 0.0401,1.36166 -1.85234,3.81006 -2.19789,4.01057 0.22246,0.87246 0.41372,1.48448 0.16728,1.91655 2.15343,-0.84924 3.06799,-6.22298 3.81969,-7.01962 1.53331,0.1423 2.70598,0.84986 3.8286,1.52127 0.0211,0.0126 -0.36154,0.80887 -0.0923,0.9059 0.58353,0.2103 2.11482,-0.19286 2.55335,-0.15163 0.33475,0.0315 1.42897,-2.18554 0.33854,-2.20821 -1.07204,-0.0223 -3.15343,-0.38777 -3.46788,-0.56236 -0.61643,-0.34228 0.39022,-1.00204 0.42728,-1.2054 0.73084,-5.2e-4 2.8483,0.40271 3.61006,0.0163 -0.28579,0.82151 -3.69893,2.72617 -4.81381,1.93983 -0.61846,-0.4362 2.12612,1.66576 2.16336,1.68674 0.14657,0.0826 0.29343,0.16224 0.44128,0.23773 0.91024,0.46472 1.85802,0.76963 3.0078,0.5963 0.46789,-0.0705 1.05575,-0.22818 1.55912,-0.40466 0.10559,-0.037 -0.57495,-1.4793 -0.76288,-3.25442 -0.11374,-1.07447 0.0865,-2.27089 0.36948,-3.35142 -0.0788,0.82989 -0.006,2.19147 0.34301,3.57224 0.33097,1.30985 0.93443,2.66409 1.02382,2.62091 1.75201,-0.84624 3.36903,-2.22392 3.82344,-3.78453 -0.25458,-0.81341 -0.98825,-1.55513 -1.92726,-2.15913 -0.0527,-0.0339 -1.25433,0.218 -1.92464,0.32696 -0.24509,0.0398 0.50706,0.33501 0.8797,0.67606 0.0706,0.0646 0.12752,0.13081 0.16152,0.19726 0.13766,0.26906 0.0549,0.45718 -0.0476,0.59738 -0.15688,0.21456 -0.47798,0.21794 -0.68989,0.0368 -0.37908,-0.32411 -0.10463,-0.93323 0.35863,-0.85767 0.51459,0.0839 1.53431,0.60139 1.29414,0.24565 -0.0757,-0.11217 0.4074,-0.51053 0.23039,-0.93656 -0.12165,-0.2928 -0.92835,-0.67411 -0.94185,-0.68122 -1.37057,-0.72202 -2.9982,-1.1674 -4.21713,-1.17559 -0.0206,-0.72375 -0.57915,-1.14857 -0.93568,-1.27587 -0.15602,-0.0557 -0.96445,-0.10536 -1.74163,-0.13517 0.14848,0.24334 1.22135,0.97051 1.33462,1.48765 -0.59859,-1.02485 -1.3156,-1.0143 -1.56884,-1.51991 -0.54809,-0.0103 -1.12194,0.003 -1.59988,0.0567 0.11207,0.21009 1.43634,1.06822 1.75982,1.87145 -0.86748,-1.22018 -1.56045,-1.45772 -2.02167,-1.77311 -0.31713,0.0771 -0.6887,0.16651 -0.80707,0.32102 1.04006,0.61462 1.93892,1.57012 2.17549,1.86043 -1.75222,0.7651 -3.41202,1.83676 -4.33801,2.49668 -1.18738,-0.1502 -3.30967,-5.0206 -3.98159,-4.74064 z"
       id="path3862-4"
       inkscape:connector-curvature="0"
       sodipodi:nodetypes="ccccccccscccccsssssccsssssscsscsssssssssscsccccccccccc"
       inkscape:export-filename="/home/tom/anymals_workspace/inkscape/TAXONFILTER/fish.png"
       inkscape:export-xdpi="32.556522"
       inkscape:export-ydpi="32.556522" />
  </g>
</svg>
