<?xml version="1.0" encoding="UTF-8" standalone="no"?>
<!-- Created with Inkscape (http://www.inkscape.org/) -->

<svg
   width="7.3894458mm"
   height="10.982319mm"
   viewBox="0 0 26.183076 38.913728"
   id="svg5278"
   version="1.1"
   inkscape:version="1.3 (0e150ed6c4, 2023-07-21)"
   sodipodi:docname="Mammalia.svg"
   inkscape:export-filename="Mammalia.png"
   inkscape:export-xdpi="96.245377"
   inkscape:export-ydpi="96.245377"
   xmlns:inkscape="http://www.inkscape.org/namespaces/inkscape"
   xmlns:sodipodi="http://sodipodi.sourceforge.net/DTD/sodipodi-0.dtd"
   xmlns="http://www.w3.org/2000/svg"
   xmlns:svg="http://www.w3.org/2000/svg"
   xmlns:rdf="http://www.w3.org/1999/02/22-rdf-syntax-ns#"
   xmlns:cc="http://creativecommons.org/ns#"
   xmlns:dc="http://purl.org/dc/elements/1.1/">
  <defs
     id="defs5280" />
  <sodipodi:namedview
     id="base"
     pagecolor="#ffffff"
     bordercolor="#666666"
     borderopacity="1.0"
     inkscape:pageopacity="0.0"
     inkscape:pageshadow="2"
     inkscape:zoom="31.678384"
     inkscape:cx="21.812982"
     inkscape:cy="14.820832"
     inkscape:document-units="px"
     inkscape:current-layer="layer1"
     showgrid="false"
     showborder="false"
     fit-margin-top="0"
     fit-margin-left="0"
     fit-margin-right="0"
     fit-margin-bottom="0"
     inkscape:window-width="2560"
     inkscape:window-height="1371"
     inkscape:window-x="0"
     inkscape:window-y="32"
     inkscape:window-maximized="1"
     inkscape:showpageshadow="2"
     inkscape:pagecheckerboard="0"
     inkscape:deskcolor="#d1d1d1" />
  <metadata
     id="metadata5283">
    <rdf:RDF>
      <cc:Work
         rdf:about="">
        <dc:format>image/svg+xml</dc:format>
        <dc:type
           rdf:resource="http://purl.org/dc/dcmitype/StillImage" />
        <dc:title />
      </cc:Work>
    </rdf:RDF>
  </metadata>
  <g
     inkscape:label="Layer 1"
     inkscape:groupmode="layer"
     id="layer1"
     transform="translate(-338.33703,-464.33391)">
    <path
       sodipodi:nodetypes="cccsc"
       inkscape:connector-curvature="0"
       id="path4902-9-6"
       d="m 364.22002,477.42532 c 0.0581,8.894 -8.89417,19.7426 -12.7916,25.2925 -3.77013,-5.623 -12.69906,-16.4953 -12.79158,-25.2925 0,-7.0646 5.72699,-12.7916 12.79158,-12.7916 7.06461,0 12.7916,5.727 12.7916,12.7916 z"
       style="display:inline;fill:#535418;fill-opacity:1;stroke:#ffffff;stroke-width:0.599612;stroke-miterlimit:4;stroke-dasharray:none;stroke-opacity:1"
       inkscape:export-filename="/home/tom/localcosmos_workspace/lclogo-text.png"
       inkscape:export-xdpi="86"
       inkscape:export-ydpi="86" />
    <g
       transform="matrix(0.03633475,0,0,0.03633475,305.67285,384.3203)"
       id="g2"
       style="clip-rule:evenodd;fill-rule:evenodd;stroke-linecap:round;stroke-linejoin:round;stroke-miterlimit:1.5">
      <path
         d="m 1443.06,2531.27 c -0.01,0.11 -0.05,0.2 -0.12,0.25 z m 0,0 c 0.27,-2.23 -10.47,-15.33 -15.4,-15.55 6.14,5.76 12.26,9.09 12.58,18.45 0,0 -1.25,1.3 -2.45,2.93 0,0 -2.73,-5.5 -4.69,-7.82 -2.02,-2.4 -7.41,-6.55 -7.41,-6.55 3.54,4.58 7.11,9.1 9,15.89 l -2.51,1.66 c 0,0 -4.59,-5.49 -7.84,-6.4 -3.68,-1.03 -9.47,0.08 -14.2,0.23 -5.08,0.15 -11.09,-0.78 -16.33,0.71 -5.63,1.61 -12.61,5.59 -17.47,8.91 -4.44,3.03 -8.44,8.36 -11.72,11.05 -2.43,1.99 -5.37,3.28 -7.95,5.09 -8.38,5.88 -53.24,6.29 -56.85,4.25 0.99,-3.74 1.58,-17.98 -3.2,-31.84 -5.02,-14.58 -16.88,-30.46 -32.82,-34.47 13.94,6.56 42.68,38.86 28.94,83.3 -3.6,11.65 -39.77,37.62 -39.77,37.62 15.39,-2.27 34.25,-4.78 46.49,-3.19 l -2.74,6.04 c 1.64,2.08 18.36,-0.12 21.64,6.74 -3.11,0.73 -5.97,3.63 -9.08,7.43 1.52,3.14 20.16,9.69 19.68,13.99 -12.08,0.26 -24.55,2.37 -33.82,2 4.1,3.22 9.13,8.15 8.09,11.75 0,0 -38.68,1.05 -56.35,-5.04 -17.66,-6.09 -36.75,-27.38 -49.65,-31.5 -9.06,-2.89 -23.36,-3.56 -30.65,0.17 -6.64,3.39 -7.51,17.26 -13.09,22.19 -7.7,6.81 -18.71,18.86 -30.14,25.28 -14.58,8.18 -38.82,18.89 -57.36,23.82 -17.46,4.63 -40.67,7.96 -53.15,8.93 -6.96,0.55 -17.731,-0.93 -21.711,-3.1 -3.934,-2.15 -4.601,-8.97 -2.916,-13.13 2.268,-5.59 9.678,-14.96 16.527,-20.41 8.75,-6.97 23.74,-14.68 35.97,-21.39 14.74,-8.08 39.01,-19.46 52.44,-27.09 9.78,-5.56 34.27,-19.89 37.7,-24.95 15.8,-23.36 8.74,-85.26 22.6,-117.31 11.92,-27.57 35.13,-57.59 64.69,-67.38 30.22,-10.01 94.64,7.09 116.66,7.29 5.53,0.05 10.77,-3.14 15.44,-6.09 5.51,-3.49 11.76,-11.45 17.61,-14.81 5.29,-3.04 11.45,-4.63 17.5,-5.35 6.89,-0.81 16.45,-0.56 23.82,0.49 7.01,1 13.56,4.08 20.42,5.83 7.29,1.86 17.74,3.32 23.33,5.35 3.85,1.39 8.18,4.05 10.21,6.8 1.96,2.67 2.43,6.89 1.94,9.73 -0.48,2.83 -4.85,3.65 -4.86,7.27 -0.02,10.7 -4.47,18.4 -4.47,18.4 -0.14,4.68 -1.56,11.09 -3.6,17.4 l -4.29,-2.24 c 0,0 1.26,-9.08 -0.65,-8.68 -1.91,0.41 -6.9,8.21 -10.81,11.11 -3.78,2.81 -8.96,3.37 -12.63,6.32 -4.14,3.32 -8.63,9.86 -12.16,13.61 -2.89,3.08 -8.62,5.59 -9,8.9 -0.37,3.32 2.89,9.13 6.77,10.97 3.99,1.89 12.04,-1.66 17.2,0.4 5.16,2.05 10.89,7.69 13.74,11.93 1.83,2.73 4.75,10.03 4.75,10.03 z m -30.07,-119.03 c -2.77,0 -5.01,2.24 -5.01,5.01 0,2.76 2.24,5.01 5.01,5.01 2.76,0 5.01,-2.25 5.01,-5.01 0,-2.77 -2.25,-5.01 -5.01,-5.01 z m -41.07,23.36 0.01,-4.27 c -6.97,1.14 -8.81,-9.25 -4.94,-13.05 6.31,-6.19 13.9,-0.71 13.9,-0.71 0.68,-2.23 -8.42,-9.37 -15.95,-2.88 -10.31,8.88 -2.58,24.8 6.98,20.91 z"
         style="fill:#ffffff"
         id="path1" />
    </g>
  </g>
</svg>
