<?xml version="1.0" encoding="UTF-8" standalone="no"?>
<!-- Created with Inkscape (http://www.inkscape.org/) -->

<svg
   width="7.3894458mm"
   height="10.982319mm"
   viewBox="0 0 26.183076 38.913728"
   id="svg5278"
   version="1.1"
   inkscape:version="1.3 (0e150ed6c4, 2023-07-21)"
   sodipodi:docname="Plantae.svg"
   inkscape:export-filename="Plantae.png"
   inkscape:export-xdpi="96.245377"
   inkscape:export-ydpi="96.245377"
   xmlns:inkscape="http://www.inkscape.org/namespaces/inkscape"
   xmlns:sodipodi="http://sodipodi.sourceforge.net/DTD/sodipodi-0.dtd"
   xmlns="http://www.w3.org/2000/svg"
   xmlns:svg="http://www.w3.org/2000/svg"
   xmlns:rdf="http://www.w3.org/1999/02/22-rdf-syntax-ns#"
   xmlns:cc="http://creativecommons.org/ns#"
   xmlns:dc="http://purl.org/dc/elements/1.1/">
  <defs
     id="defs5280" />
  <sodipodi:namedview
     id="base"
     pagecolor="#ffffff"
     bordercolor="#666666"
     borderopacity="1.0"
     inkscape:pageopacity="0.0"
     inkscape:pageshadow="2"
     inkscape:zoom="5.6"
     inkscape:cx="1.7857143"
     inkscape:cy="15.625"
     inkscape:document-units="px"
     inkscape:current-layer="layer1"
     showgrid="false"
     showborder="false"
     fit-margin-top="0"
     fit-margin-left="0"
     fit-margin-right="0"
     fit-margin-bottom="0"
     inkscape:window-width="1499"
     inkscape:window-height="1243"
     inkscape:window-x="37"
     inkscape:window-y="69"
     inkscape:window-maximized="0"
     inkscape:showpageshadow="2"
     inkscape:pagecheckerboard="0"
     inkscape:deskcolor="#d1d1d1" />
  <metadata
     id="metadata5283">
    <rdf:RDF>
      <cc:Work
         rdf:about="">
        <dc:format>image/svg+xml</dc:format>
        <dc:type
           rdf:resource="http://purl.org/dc/dcmitype/StillImage" />
        <dc:title />
      </cc:Work>
    </rdf:RDF>
  </metadata>
  <g
     inkscape:label="Layer 1"
     inkscape:groupmode="layer"
     id="layer1"
     transform="translate(-338.33703,-464.33391)">
    <path
       sodipodi:nodetypes="cccsc"
       inkscape:connector-curvature="0"
       id="path4902-9-6"
       d="m 364.22002,477.42532 c 0.0581,8.894 -8.89417,19.7426 -12.7916,25.2925 -3.77013,-5.623 -12.69906,-16.4953 -12.79158,-25.2925 0,-7.0646 5.72699,-12.7916 12.79158,-12.7916 7.06461,0 12.7916,5.727 12.7916,12.7916 z"
       style="display:inline;fill:#899200;fill-opacity:1;stroke:#ffffff;stroke-width:0.599612;stroke-miterlimit:4;stroke-dasharray:none;stroke-opacity:1"
       inkscape:export-filename="/home/tom/localcosmos_workspace/lclogo-text.png"
       inkscape:export-xdpi="86"
       inkscape:export-ydpi="86" />
    <path
       style="display:inline;fill:#ffffff;fill-opacity:1;stroke:none;stroke-width:0.29791233"
       d="m 352.3544,489.89501 c 0.0937,-1.5312 0.19409,-2.85656 0.81935,-4.91929 -0.008,-0.003 0.84957,-1.28632 0.92471,-1.49146 0.11443,-0.31243 -0.3177,-2.76576 -0.87931,-4.91514 -0.0162,-0.0621 0.87969,-0.67804 1.31206,-3.35091 -0.59726,1.98685 -1.49932,2.59452 -1.51853,2.52395 -0.26473,-0.97233 -0.56896,-1.75135 -0.79001,-2.18357 -0.77222,-1.50982 -2.19191,-3.36757 -3.62276,-4.50108 0.59459,0.48318 1.87438,2.2726 2.89087,4.7817 -0.3148,-0.28187 -0.83823,-0.49073 -2.05254,-0.68786 1.21109,0.38558 1.81652,0.98099 2.22997,1.34553 0.41052,1.0806 0.7681,2.25061 1.00631,3.44484 -0.15772,-0.10071 -2.43835,-0.8999 -3.06354,-0.70524 0.92022,0.25104 3.26174,1.39954 3.31806,1.43277 0.72005,2.34257 1.0484,4.23543 0.44919,4.42396 -0.0821,0.0258 -0.35482,-0.18354 -0.35865,-0.18529 -4.94262,-2.25902 -5.07303,-10.63484 -5.95777,-14.86017 2.05992,-0.8402 4.65898,1.76088 6.03312,2.7743 2.95592,2.18003 3.87357,7.00351 0.76827,12.26579 -0.51246,1.47625 -0.2839,3.1995 -0.27188,4.85057 0.0681,0.396 -1.44476,1.74923 -1.23692,-0.0434 z"
       id="path4622-7-3"
       inkscape:connector-curvature="0"
       sodipodi:nodetypes="ccsscsscccccccsscsccc"
       inkscape:export-filename="/home/tom/anymals_workspace/inkscape/TAXONFILTER/plants.png"
       inkscape:export-xdpi="32.556522"
       inkscape:export-ydpi="32.556522" />
  </g>
</svg>
