<?xml version="1.0" encoding="UTF-8" standalone="no"?>
<!-- Created with Inkscape (http://www.inkscape.org/) -->

<svg
   width="7.3894458mm"
   height="10.982319mm"
   viewBox="0 0 26.183076 38.913728"
   id="svg5278"
   version="1.1"
   inkscape:version="1.3 (0e150ed6c4, 2023-07-21)"
   sodipodi:docname="Sehenswurdigkeit.svg"
   inkscape:export-filename="Sehenswurdigkeit.png"
   inkscape:export-xdpi="96.245377"
   inkscape:export-ydpi="96.245377"
   xmlns:inkscape="http://www.inkscape.org/namespaces/inkscape"
   xmlns:sodipodi="http://sodipodi.sourceforge.net/DTD/sodipodi-0.dtd"
   xmlns="http://www.w3.org/2000/svg"
   xmlns:svg="http://www.w3.org/2000/svg"
   xmlns:rdf="http://www.w3.org/1999/02/22-rdf-syntax-ns#"
   xmlns:cc="http://creativecommons.org/ns#"
   xmlns:dc="http://purl.org/dc/elements/1.1/">
  <defs
     id="defs5280" />
  <sodipodi:namedview
     id="base"
     pagecolor="#ffffff"
     bordercolor="#666666"
     borderopacity="1.0"
     inkscape:pageopacity="0.0"
     inkscape:pageshadow="2"
     inkscape:zoom="0.98994949"
     inkscape:cx="-118.69292"
     inkscape:cy="-112.63201"
     inkscape:document-units="px"
     inkscape:current-layer="layer1"
     showgrid="false"
     showborder="false"
     fit-margin-top="0"
     fit-margin-left="0"
     fit-margin-right="0"
     fit-margin-bottom="0"
     inkscape:window-width="2560"
     inkscape:window-height="1371"
     inkscape:window-x="0"
     inkscape:window-y="32"
     inkscape:window-maximized="1"
     inkscape:showpageshadow="2"
     inkscape:pagecheckerboard="0"
     inkscape:deskcolor="#d1d1d1" />
  <metadata
     id="metadata5283">
    <rdf:RDF>
      <cc:Work
         rdf:about="">
        <dc:format>image/svg+xml</dc:format>
        <dc:type
           rdf:resource="http://purl.org/dc/dcmitype/StillImage" />
        <dc:title />
      </cc:Work>
    </rdf:RDF>
  </metadata>
  <g
     inkscape:label="Layer 1"
     inkscape:groupmode="layer"
     id="layer1"
     transform="translate(-338.33703,-464.33391)">
    <path
       sodipodi:nodetypes="cccsc"
       inkscape:connector-curvature="0"
       id="path4902-9-6"
       d="m 364.22002,477.42532 c 0.0581,8.894 -8.89417,19.7426 -12.7916,25.2925 -3.77013,-5.623 -12.69906,-16.4953 -12.79158,-25.2925 0,-7.0646 5.72699,-12.7916 12.79158,-12.7916 7.06461,0 12.7916,5.727 12.7916,12.7916 z"
       style="display:inline;fill:#000000;fill-opacity:1;stroke:#ffffff;stroke-width:0.599612;stroke-miterlimit:4;stroke-dasharray:none;stroke-opacity:1"
       inkscape:export-filename="/home/tom/localcosmos_workspace/lclogo-text.png"
       inkscape:export-xdpi="86"
       inkscape:export-ydpi="86" />
    <g
       transform="matrix(0.04334966,0,0,0.04334966,229.28895,423.10098)"
       id="g2"
       style="clip-rule:evenodd;fill-rule:evenodd;stroke-linecap:round;stroke-linejoin:round;stroke-miterlimit:1.5">
      <path
         d="m 2764.95,1444.64 3.77,-82.14 h 96.55 l 3.78,82.14 h 21 v 54.14 h -145.01 v -54.14 z m 59.42,-61.18 h -14.75 v 27.16 h 14.75 z m -51.63,-108.35 3.4,-74.09 h 81.71 l 3.41,74.09 z m 51.63,-51.5 h -14.75 v 27.16 h 14.75 z m -49.41,-28.11 -6.32,-17.39 h 96.69 l -7.72,17.39 z m -28.14,-22.92 v -40.3 h 140.36 v 40.3 z m 33.63,-45.83 v -34.13 h 44.19 l -7.1,34.13 z m -13.96,-39.66 44.27,-36.6 h 12.47 l 44.27,36.6 z m 44.27,-41.16 c -2,-1.75 -3.27,-4.31 -3.27,-7.17 0,-4.79 3.55,-8.75 8.16,-9.41 l 0.13,-6.04 h -1.18 v -2.5 h 1.23 l 0.47,-22.357 h 1.4 l 0.46,22.357 h 1.23 v 2.5 h -1.17 l 0.13,6.04 c 4.6,0.66 8.15,4.62 8.15,9.41 0,2.86 -1.26,5.42 -3.26,7.17 z m 42.79,46.69 v 34.13 h -7.6 l -7.1,-34.13 z m 7.96,188.02 3.51,76.33 h -96.04 l 3.5,-76.33 z m -37.14,20.85 h -14.75 v 27.16 h 14.75 z"
         style="fill:#ffffff"
         id="path1" />
    </g>
  </g>
</svg>
