<?xml version="1.0" encoding="UTF-8"?><svg id="Layer_1" xmlns="http://www.w3.org/2000/svg" width="1667.22" height="975.48" viewBox="0 0 1667.22 975.48"><path d="M389.47,669.02c22.69,0,44.41,5.84,61.27,16.21l-13.62,45.38h-1.62c-8.43-31.45-25.61-48.3-50.89-48.3-22.05,0-35.99,12.97-35.99,31.77,0,51.22,105.36,47.98,105.36,119.94,0,38.25-29.82,61.92-77.48,61.92-23.66,0-44.41-5.84-61.27-16.21l13.62-45.38h1.62c8.43,31.44,26.26,48.3,52.19,48.3,23.02,0,37.6-13.29,37.6-33.06,0-53.16-105.03-49.92-105.03-120.27,0-36.96,28.85-60.3,74.24-60.3Z" fill="#011417"/><path d="M467.98,673.89v-1.62h81.37c52.84,0,81.05,19.78,81.05,56.41,0,45.06-42.14,73.59-108.6,73.59h-6.81v67.75c0,10.7,2.27,16.53,8.1,21.07v1.62h-55.11v-1.62c5.84-4.54,8.11-10.37,8.11-21.07v-175.05c0-10.7-2.27-16.53-8.11-21.07ZM521.46,789.29c44.09,0,68.08-17.83,68.08-50.89s-22.69-53.16-57.38-53.16h-17.18v104.06h6.48Z" fill="#011417"/><path d="M640.33,673.89v-1.62h129.99l4.86,48.63h-1.62c-9.08-24.31-31.12-35.66-69.7-35.66h-16.53v84.28h27.55c20.74,0,31.77-4.21,35.66-12.97h1.62v38.9h-1.62c-3.89-8.75-14.92-12.97-35.66-12.97h-27.55v97.25h19.77c35.98,0,59-12.97,69.7-38.9h1.62l-3.24,51.87h-134.86v-1.62c5.83-4.54,8.1-10.37,8.1-21.07v-175.05c0-10.7-2.27-16.53-8.1-21.07Z" fill="#011417"/><path d="M953.74,730.62h-1.62c-6.16-30.47-27.88-48.3-58.03-48.3-35.98,0-63.86,25.29-63.86,83.31,0,62.56,32.09,108.92,78.77,108.92,23.99,0,45.06-11.67,54.14-30.47l4.54,2.92c-11.35,29.5-42.47,48.95-78.13,48.95-56.41,0-99.52-48.95-99.52-112.49s47.01-114.43,109.57-114.43c19.45,0,41.49,4.54,58.03,12.97l-3.89,48.63Z" fill="#011417"/><path d="M979.62,673.89v-1.62h55.11v1.62c-5.83,4.54-8.1,10.37-8.1,21.07v175.05c0,10.7,2.27,16.53,8.1,21.07v1.62h-55.11v-1.62c5.84-4.54,8.11-10.37,8.11-21.07v-175.05c0-10.7-2.27-16.53-8.11-21.07Z" fill="#011417"/><path d="M1056.35,673.89v-1.62h129.99l4.86,48.63h-1.62c-9.07-24.31-31.12-35.66-69.7-35.66h-16.53v84.28h27.55c20.75,0,31.77-4.21,35.66-12.97h1.62v38.9h-1.62c-3.89-8.75-14.91-12.97-35.66-12.97h-27.55v97.25h19.77c35.98,0,59-12.97,69.7-38.9h1.62l-3.24,51.87h-134.86v-1.62c5.84-4.54,8.11-10.37,8.11-21.07v-175.05c0-10.7-2.27-16.53-8.11-21.07Z" fill="#011417"/><path d="M1287.48,669.02c22.69,0,44.41,5.84,61.27,16.21l-13.62,45.38h-1.62c-8.43-31.45-25.61-48.3-50.89-48.3-22.05,0-35.99,12.97-35.99,31.77,0,51.22,105.36,47.98,105.36,119.94,0,38.25-29.82,61.92-77.48,61.92-23.66,0-44.41-5.84-61.27-16.21l13.62-45.38h1.62c8.43,31.44,26.26,48.3,52.19,48.3,23.02,0,37.6-13.29,37.6-33.06,0-53.16-105.03-49.92-105.03-120.27,0-36.96,28.85-60.3,74.24-60.3Z" fill="#011417"/><path d="M560.34,136.26c0-18.49-3.61-25.63-14.03-27.31v-2.1l52.99-26.05,1.2.84v227.16c0,13.44,3.21,20.59,12.02,27.31v2.1h-64.21v-2.1c8.82-6.72,12.03-13.86,12.03-27.31v-172.54Z" fill="#011417"/><path d="M1068.73,135.63c0-18.49-3.61-25.63-14.03-27.31v-2.1l52.99-26.05,1.2.84v227.16c0,13.44,3.21,20.59,12.02,27.31v2.1h-64.21v-2.1c8.82-6.72,12.03-13.86,12.03-27.31v-172.54Z" fill="#011417"/><path d="M731.02,79.54c53.71,0,92.54,54.4,92.54,129.34s-38.83,129.34-92.54,129.34-92.54-54.4-92.54-129.34,38.83-129.34,92.54-129.34ZM731.02,323c31.21,0,48.99-41.08,48.99-114.12s-17.78-114.12-48.99-114.12-48.99,41.46-48.99,114.12,17.78,114.12,48.99,114.12Z" fill="#011417"/><path d="M938.67,79.54c53.71,0,92.54,54.4,92.54,129.34s-38.83,129.34-92.54,129.34-92.54-54.4-92.54-129.34,38.83-129.34,92.54-129.34ZM938.67,323c31.21,0,48.99-41.08,48.99-114.12s-17.78-114.12-48.99-114.12-48.99,41.46-48.99,114.12,17.78,114.12,48.99,114.12Z" fill="#011417"/><path d="M855.14,388.33c54.04,9.44,87.42,58.33,77.69,114.04-9.73,55.72-57.7,90.4-111.74,80.97-54.05-9.44-87.42-58.33-77.69-114.04,9.73-55.72,57.7-90.4,111.74-80.97ZM834.98,572.84c29.25,5.11,53.27-17.4,60.72-60.02,9.48-54.32-13.77-106.9-54.45-114-29.25-5.11-53.28,17.4-60.72,60.02-9.49,54.32,13.77,106.9,54.45,114Z" fill="#011417"/><path d="M751.42,632.92c6.62-16.17,21.87-27.87,38.4-32.83,17.1-4.61,35.41-3.11,51.95,2.87,12.58,4.97,25.79,8.87,39.11,11.2,13.14,2.28,28.82,1.25,42.57-.42,0,0,1.35,1.81,1.35,1.81-12.32,9.32-27.13,15.3-42.6,16.6-15.41,1.07-31.02-1.62-45.4-6.98-20.55-8.44-44.13-11.24-64.79-1.81-6.87,2.82-13.29,6.66-19.19,11.31l-1.42-1.76h0Z" fill="#011417"/><path d="M175.87,384.98c22.69,0,44.41,5.84,61.27,16.21l-13.62,45.38h-1.62c-8.43-31.45-25.61-48.3-50.89-48.3-22.05,0-35.98,12.97-35.98,31.77,0,51.22,105.35,47.98,105.35,119.94,0,38.25-29.82,61.92-77.48,61.92-23.66,0-44.41-5.84-61.27-16.21l13.62-45.38h1.62c8.43,31.44,26.26,48.3,52.19,48.3,23.02,0,37.6-13.29,37.6-33.06,0-53.16-105.03-49.92-105.03-120.27,0-36.96,28.85-60.3,74.24-60.3Z" fill="#011417"/><path d="M249.93,391.68v-1.62h129.99l4.86,48.63h-1.62c-9.08-24.31-31.12-35.66-69.7-35.66h-16.53v84.28h27.55c20.75,0,31.77-4.21,35.66-12.97h1.62v38.9h-1.62c-3.89-8.75-14.91-12.97-35.66-12.97h-27.55v97.25h19.77c35.98,0,59-12.97,69.7-38.9h1.62l-3.24,51.87h-134.86v-1.62c5.84-4.54,8.11-10.37,8.11-21.07v-175.05c0-10.7-2.27-16.53-8.11-21.07Z" fill="#011417"/><path d="M1120.53,391.68v-1.62h120.36l4.86,48.63h-1.62c-9.08-24.31-21.49-35.66-60.06-35.66h-16.53v77.86h27.55c20.75,0,22.14-4.21,26.03-12.97h1.62v38.9h-1.62c-3.89-8.75-5.28-12.97-26.03-12.97h-27.55v74.77h19.77c35.98,0,49.37-12.97,60.06-38.9h1.62l-3.24,51.87h-125.22v-1.62c5.84-4.54,8.11-10.37,8.11-27.49v-146.15c0-4.28-2.27-10.11-8.11-14.65Z" fill="#011417"/><path d="M502.17,390.06l69.37,200.01c4.21,10.37,8.43,16.21,13.62,18.8v1.62h-47.65l-32.74-94.01h-63.86c-14.26,49.92-12.64,82.01,4.54,92.39v1.62h-51.22l71.64-206.5-4.86-13.94h41.17ZM445.43,503.52h54.78l-27.23-79.42-27.55,79.42Z" fill="#011417"/><path d="M595,391.68v-1.62h129.99l4.86,48.63h-1.62c-9.08-24.31-31.12-35.66-69.7-35.66h-16.53v84.28h27.55c20.75,0,31.77-4.21,35.66-12.97h1.62v38.9h-1.62c-3.89-8.75-14.91-12.97-35.66-12.97h-27.55v87.53c0,10.7,2.27,16.53,8.1,21.07v1.62h-55.11v-1.62c5.84-4.54,8.11-10.37,8.11-21.07v-175.05c0-10.7-2.27-16.53-8.11-21.07Z" fill="#011417"/><path d="M1335.5,384.98c22.69,0,44.41,5.84,61.27,16.21l-13.62,45.38h-1.62c-8.43-31.45-25.61-48.3-50.89-48.3-22.05,0-35.98,12.97-35.98,31.77,0,51.22,105.35,47.98,105.35,119.94,0,38.25-29.82,61.92-77.48,61.92-23.66,0-44.41-5.84-61.27-16.21l13.62-45.38h1.62c8.43,31.44,26.26,48.3,52.19,48.3,23.02,0,37.6-13.29,37.6-33.06,0-53.16-105.03-49.92-105.03-120.27,0-36.96,28.85-60.3,74.24-60.3Z" fill="#011417"/><path d="M1465.41,403.03c-30.79,0-50.24,11.02-59.65,35.66h-1.62l4.86-48.63h151.71l4.86,48.63h-1.62c-9.4-24.64-28.85-35.66-59.65-35.66v184.78c0,10.7,2.27,16.53,8.1,21.07v1.62h-55.11v-1.62c5.84-4.54,8.1-10.37,8.1-21.07v-184.78Z" fill="#011417"/><path d="M1192.1,631.53c-8.53-2.35-53.73-8.97-91.18-45.21-6.62-6.89-12.84-14.83-18.62-23.8l-34.04-52.19c36.63-10.7,58.03-34.04,58.03-65.16,0-35.98-28.2-55.11-81.04-55.11h-78.13v1.62c5.84,4.54,8.11,10.37,8.11,21.07v175.05c0,10.7-2.27,16.53-8.11,21.07v1.62h55.11v-1.62c-5.84-4.54-8.1-10.37-8.1-21.07v-70.99h3.56c2.92,0,5.84,0,8.43-.32l29.5,46.03c39.33,49.87,83.96,70.67,140.04,70.67l-.42-.04h16.86v-1.62ZM997.37,503.85h-3.24v-100.82h13.94c34.69,0,57.38,20.42,57.38,51.54s-23.99,49.27-68.08,49.27Z" fill="#011417"/></svg>